<svg xmlns="http://www.w3.org/2000/svg" viewBox="0 0 64 64">
  <defs>
    <linearGradient id="g" x1="8" y1="8" x2="56" y2="56" gradientUnits="userSpaceOnUse">
      <stop offset="0" stop-color="#7c3aed"/>
      <stop offset="1" stop-color="#60a5fa"/>
    </linearGradient>
  </defs>
  <rect x="6" y="6" width="52" height="52" rx="16" fill="url(#g)"/>
  <path d="M20 35c0-7 6-13 14-13 4 0 7 1 10 3l-4 6c-2-2-4-3-6-3-4 0-7 3-7 7s3 7 7 7c2 0 4-1 6-3l4 6c-3 2-6 3-10 3-8 0-14-6-14-13z" fill="white" opacity=".92"/>
</svg>

